<svg width="48" height="48" viewBox="0 0 48 48" fill="none" xmlns="http://www.w3.org/2000/svg">
<path d="M8.66094 25.2949C13.8707 24.174 13.1595 17.9324 13.0069 16.5686C12.7501 14.465 10.281 10.7915 6.93062 11.085C2.71238 11.4613 2.09661 17.5629 2.09661 17.5629C1.52522 20.3882 3.45989 26.4184 8.66094 25.2949ZM18.3357 14.8318C21.2115 14.8318 23.536 11.5131 23.536 7.41357C23.536 3.31332 21.2115 0 18.3357 0C15.4585 0 13.1279 3.31332 13.1279 7.41357C13.1279 11.5131 15.4579 14.8318 18.3357 14.8318ZM30.7343 15.3199C34.5841 15.8248 37.0506 11.7124 37.544 8.59632C38.0481 5.48428 35.5609 1.86467 32.8417 1.24334C30.1105 0.6146 26.7009 4.99287 26.3937 7.8491C26.0193 11.3428 26.8885 14.8265 30.7343 15.3199ZM45.9798 20.5551C45.9798 19.0647 44.7476 14.572 40.1589 14.572C35.5609 14.572 34.9532 18.8116 34.9532 21.8072C34.9532 24.6661 35.1912 28.6539 40.9011 28.5301C46.605 28.4035 45.9798 22.0556 45.9798 20.5551ZM40.1589 33.6387C40.1589 33.6387 34.2077 29.0289 30.7343 24.0448C26.0179 16.6958 19.3265 19.6887 17.0894 23.4208C14.8589 27.1622 11.3915 29.525 10.8954 30.1524C10.3946 30.767 3.70795 34.3853 5.19156 40.9924C6.67853 47.5941 11.893 47.4689 11.893 47.4689C11.893 47.4689 15.7362 47.8452 20.193 46.8469C24.6593 45.8513 28.5018 47.0913 28.5018 47.0913C28.5018 47.0913 38.92 50.5897 41.7669 43.8581C44.6172 37.1318 40.1589 33.6387 40.1589 33.6387Z" fill="#2319DC"/>
<path d="M19.26 27.212V31.6468H15.6515C15.6515 31.6468 12.045 31.9464 10.7825 36.0399C10.3422 38.773 11.1711 40.3825 11.3156 40.7265C11.4615 41.0698 12.6271 43.0691 15.554 43.6561H22.3254V27.2605L19.26 27.212ZM19.2055 40.9648H16.4776C16.4776 40.9648 14.5772 40.8658 13.9984 38.6747C13.7 37.704 14.0428 36.5825 14.1934 36.1416C14.3312 35.7 14.9692 34.6794 16.2847 34.2863H19.2049L19.2055 40.9648Z" fill="white"/>
<path d="M23.9851 32.0447V40.6773C23.9851 40.6773 24.1263 42.8254 27.1513 43.6083H34.9438V32.0433H31.5806V40.7251H28.3714C28.3714 40.7251 27.3456 40.5757 27.1526 39.7504V31.9935L23.9851 32.0447Z" fill="white"/>
</svg>
